<?xml version="1.0" encoding="UTF-8" standalone="no"?><!DOCTYPE svg PUBLIC "-//W3C//DTD SVG 1.1//EN" "http://www.w3.org/Graphics/SVG/1.1/DTD/svg11.dtd"><!-- Generated by graphviz version 2.40.1 (20161225.0304)
 --><!-- Title: classes_Biaxial_Testing_Machine Pages: 1 --><svg xmlns="http://www.w3.org/2000/svg" xmlns:xlink="http://www.w3.org/1999/xlink" width="917pt" height="1007pt" viewBox="0.00 0.00 916.72 1006.60">
<g id="graph0" class="graph" transform="scale(1 1) rotate(0) translate(4 1002.6)">
<title>classes_Biaxial_Testing_Machine</title>
<polygon fill="#ffffff" stroke="transparent" points="-4,4 -4,-1002.6 912.7245,-1002.6 912.7245,4 -4,4"/>
<!-- sources.biaxmainwindow.BiaxMainWindow -->
<g id="node1" class="node">
<title>sources.biaxmainwindow.BiaxMainWindow</title>
<polygon fill="none" stroke="#000000" points="331.7721,-856.5 331.7721,-998.1 462.0807,-998.1 462.0807,-856.5 331.7721,-856.5"/>
<text text-anchor="start" x="344.8247" y="-981.5" font-family="Times,serif" font-size="14.00" fill="#000000">BiaxMainWindow</text>
<polyline fill="none" stroke="#000000" points="331.7721,-973.3 462.0807,-973.3 "/>
<text text-anchor="start" x="339.7721" y="-956.7" font-family="Times,serif" font-size="14.00" fill="#000000">cycl_num : int</text>
<text text-anchor="start" x="339.7721" y="-939.9" font-family="Times,serif" font-size="14.00" fill="#000000">end_force1 : float</text>
<text text-anchor="start" x="339.7721" y="-923.1" font-family="Times,serif" font-size="14.00" fill="#000000">end_force2 : float</text>
<text text-anchor="start" x="339.7721" y="-906.3" font-family="Times,serif" font-size="14.00" fill="#000000">fl_label_color : bool</text>
<text text-anchor="start" x="339.7721" y="-889.5" font-family="Times,serif" font-size="14.00" fill="#000000">test_duration : float</text>
<polyline fill="none" stroke="#000000" points="331.7721,-881.3 462.0807,-881.3 "/>
<text text-anchor="start" x="346.3948" y="-864.7" font-family="Times,serif" font-size="14.00" fill="#000000">closeEvent(event)</text>
</g>
<!-- sources.mechanicaltests.DisplacementControlTest -->
<g id="node2" class="node">
<title>sources.mechanicaltests.DisplacementControlTest</title>
<polygon fill="none" stroke="#000000" points="0,-263.1 0,-354.3 159.8528,-354.3 159.8528,-263.1 0,-263.1"/>
<text text-anchor="start" x="8" y="-337.7" font-family="Times,serif" font-size="14.00" fill="#000000">DisplacementControlTest</text>
<polyline fill="none" stroke="#000000" points="0,-329.5 159.8528,-329.5 "/>
<polyline fill="none" stroke="#000000" points="0,-304.7 159.8528,-304.7 "/>
<text text-anchor="start" x="9.5638" y="-288.1" font-family="Times,serif" font-size="14.00" fill="#000000">run()</text>
<text text-anchor="start" x="9.5638" y="-271.3" font-family="Times,serif" font-size="14.00" fill="#000000">update_speed(val1, val2)</text>
</g>
<!-- sources.mechanicaltests.DisplacementControlTest&#45;&gt;sources.biaxmainwindow.BiaxMainWindow -->
<g id="edge5" class="edge">
<title>sources.mechanicaltests.DisplacementControlTest-&gt;sources.biaxmainwindow.BiaxMainWindow</title>
<path fill="none" stroke="#000000" d="M65.3955,-354.6123C38.7511,-448.3496 -6.909,-664.5683 88.5042,-803.2 140.4246,-878.6383 246.4635,-908.2365 319.5915,-919.8383"/>
<polygon fill="#000000" stroke="#000000" points="319.6151,-919.8417 326.14,-916.7714 331.4837,-921.6134 324.9589,-924.6837 319.6151,-919.8417"/>
<text text-anchor="middle" x="116.1375" y="-601.7" font-family="Times,serif" font-size="14.00" fill="#00ff00">_mecTest</text>
</g>
<!-- sources.mechanicaltests.MechanicalTest -->
<g id="node5" class="node">
<title>sources.mechanicaltests.MechanicalTest</title>
<polygon fill="none" stroke="#000000" points="152.0659,-409.1 152.0659,-802.7 315.7869,-802.7 315.7869,-409.1 152.0659,-409.1"/>
<text text-anchor="start" x="189.2258" y="-786.1" font-family="Times,serif" font-size="14.00" fill="#000000">MechanicalTest</text>
<polyline fill="none" stroke="#000000" points="152.0659,-777.9 315.7869,-777.9 "/>
<text text-anchor="start" x="160.0659" y="-761.3" font-family="Times,serif" font-size="14.00" fill="#000000">marks_groups : list</text>
<text text-anchor="start" x="160.0659" y="-744.5" font-family="Times,serif" font-size="14.00" fill="#000000">res_x : int</text>
<text text-anchor="start" x="160.0659" y="-727.7" font-family="Times,serif" font-size="14.00" fill="#000000">res_y : int</text>
<text text-anchor="start" x="160.0659" y="-710.9" font-family="Times,serif" font-size="14.00" fill="#000000">signal_change_pixmap</text>
<text text-anchor="start" x="160.0659" y="-694.1" font-family="Times,serif" font-size="14.00" fill="#000000">signal_update_charts</text>
<text text-anchor="start" x="160.0659" y="-677.3" font-family="Times,serif" font-size="14.00" fill="#000000">signal_update_force_label</text>
<text text-anchor="start" x="160.0659" y="-660.5" font-family="Times,serif" font-size="14.00" fill="#000000">thread</text>
<polyline fill="none" stroke="#000000" points="152.0659,-652.3 315.7869,-652.3 "/>
<text text-anchor="start" x="161.6192" y="-635.7" font-family="Times,serif" font-size="14.00" fill="#000000">changeFolder(folder)</text>
<text text-anchor="start" x="161.6192" y="-618.9" font-family="Times,serif" font-size="14.00" fill="#000000">getMarksStatus()</text>
<text text-anchor="start" x="161.6192" y="-602.1" font-family="Times,serif" font-size="14.00" fill="#000000">initMotZeroPos()</text>
<text text-anchor="start" x="161.6192" y="-585.3" font-family="Times,serif" font-size="14.00" fill="#000000">marksRecorded(lst)</text>
<text text-anchor="start" x="161.6192" y="-568.5" font-family="Times,serif" font-size="14.00" fill="#000000">moveSamplePosition()</text>
<text text-anchor="start" x="161.6192" y="-551.7" font-family="Times,serif" font-size="14.00" fill="#000000">moveVelocityAx1(speed)</text>
<text text-anchor="start" x="161.6192" y="-534.9" font-family="Times,serif" font-size="14.00" fill="#000000">moveVelocityAx2(speed)</text>
<text text-anchor="start" x="161.6192" y="-518.1" font-family="Times,serif" font-size="14.00" fill="#000000">readForceLive()</text>
<text text-anchor="start" x="161.6192" y="-501.3" font-family="Times,serif" font-size="14.00" fill="#000000">run()</text>
<text text-anchor="start" x="161.6192" y="-484.5" font-family="Times,serif" font-size="14.00" fill="#000000">setThread(thread)</text>
<text text-anchor="start" x="161.6192" y="-467.7" font-family="Times,serif" font-size="14.00" fill="#000000">stop()</text>
<text text-anchor="start" x="161.6192" y="-450.9" font-family="Times,serif" font-size="14.00" fill="#000000">stop_measurement()</text>
<text text-anchor="start" x="161.6192" y="-434.1" font-family="Times,serif" font-size="14.00" fill="#000000">zeroForce()</text>
<text text-anchor="start" x="161.6192" y="-417.3" font-family="Times,serif" font-size="14.00" fill="#000000">zeroPosition()</text>
</g>
<!-- sources.mechanicaltests.DisplacementControlTest&#45;&gt;sources.mechanicaltests.MechanicalTest -->
<g id="edge1" class="edge">
<title>sources.mechanicaltests.DisplacementControlTest-&gt;sources.mechanicaltests.MechanicalTest</title>
<path fill="none" stroke="#000000" d="M107.4934,-354.5589C117.3672,-371.4016 128.4038,-390.7225 137.9264,-408.6 141.0548,-414.4732 144.2032,-420.4635 147.3544,-426.5276"/>
<polygon fill="none" stroke="#000000" points="144.2704,-428.1835 151.9713,-435.46 150.4889,-424.9694 144.2704,-428.1835"/>
</g>
<!-- sources.loadcalculator.LoadCalculatorWindow -->
<g id="node3" class="node">
<title>sources.loadcalculator.LoadCalculatorWindow</title>
<polygon fill="none" stroke="#000000" points="501.2805,-36.9 501.2805,-156.1 652.5723,-156.1 652.5723,-36.9 501.2805,-36.9"/>
<text text-anchor="start" x="509.2805" y="-139.5" font-family="Times,serif" font-size="14.00" fill="#000000">LoadCalculatorWindow</text>
<polyline fill="none" stroke="#000000" points="501.2805,-131.3 652.5723,-131.3 "/>
<text text-anchor="start" x="510.0589" y="-114.7" font-family="Times,serif" font-size="14.00" fill="#000000">load1</text>
<text text-anchor="start" x="510.0589" y="-97.9" font-family="Times,serif" font-size="14.00" fill="#000000">load2</text>
<text text-anchor="start" x="510.0589" y="-81.1" font-family="Times,serif" font-size="14.00" fill="#000000">signal_loads_calculated</text>
<polyline fill="none" stroke="#000000" points="501.2805,-72.9 652.5723,-72.9 "/>
<text text-anchor="start" x="526.3948" y="-57.3" font-family="Times,serif" font-size="14.00" fill="#000000">calcLoads()</text>
<text text-anchor="start" x="526.3948" y="-43.3" font-family="Times,serif" font-style="italic" font-size="14.00" fill="#000000">closeEvent</text>
<text text-anchor="start" x="587.817" y="-43.3" font-family="Times,serif" font-size="14.00" fill="#000000">(event)</text>
</g>
<!-- sources.mechanicaltests.LoadControlTest -->
<g id="node4" class="node">
<title>sources.mechanicaltests.LoadControlTest</title>
<polygon fill="none" stroke="#000000" points="177.955,-246.3 177.955,-371.1 595.8978,-371.1 595.8978,-246.3 177.955,-246.3"/>
<text text-anchor="start" x="339.1024" y="-354.5" font-family="Times,serif" font-size="14.00" fill="#000000">LoadControlTest</text>
<polyline fill="none" stroke="#000000" points="177.955,-346.3 595.8978,-346.3 "/>
<polyline fill="none" stroke="#000000" points="177.955,-321.5 595.8978,-321.5 "/>
<text text-anchor="start" x="185.955" y="-304.9" font-family="Times,serif" font-size="14.00" fill="#000000">increase_desired_force(start_force, end_force, duration, current_time)</text>
<text text-anchor="start" x="185.955" y="-288.1" font-family="Times,serif" font-size="14.00" fill="#000000">run()</text>
<text text-anchor="start" x="185.955" y="-271.3" font-family="Times,serif" font-size="14.00" fill="#000000">updatePID(P1, I1, D1, P2, I2, D2)</text>
<text text-anchor="start" x="185.955" y="-254.5" font-family="Times,serif" font-size="14.00" fill="#000000">update_parameters(end_force1, end_force2, test_duration, num_cycles)</text>
</g>
<!-- sources.mechanicaltests.LoadControlTest&#45;&gt;sources.biaxmainwindow.BiaxMainWindow -->
<g id="edge6" class="edge">
<title>sources.mechanicaltests.LoadControlTest-&gt;sources.biaxmainwindow.BiaxMainWindow</title>
<path fill="none" stroke="#000000" d="M371.3995,-371.2571C368.9455,-383.5614 366.7945,-396.429 365.5042,-408.6 347.0154,-583.0005 343.814,-629.1687 365.5042,-803.2 367.1837,-816.6756 369.8515,-830.7882 372.9402,-844.466"/>
<polygon fill="#000000" stroke="#000000" points="372.9881,-844.6688 378.2611,-849.5877 375.7486,-856.347 370.4756,-851.4281 372.9881,-844.6688"/>
<text text-anchor="middle" x="393.1375" y="-601.7" font-family="Times,serif" font-size="14.00" fill="#00ff00">_mecTest</text>
</g>
<!-- sources.mechanicaltests.LoadControlTest&#45;&gt;sources.biaxmainwindow.BiaxMainWindow -->
<g id="edge7" class="edge">
<title>sources.mechanicaltests.LoadControlTest-&gt;sources.biaxmainwindow.BiaxMainWindow</title>
<path fill="none" stroke="#000000" d="M410.9861,-371.3584C414.7002,-383.5403 417.9534,-396.3372 419.9264,-408.6 447.7846,-581.751 435.9734,-628.5579 419.9264,-803.2 418.6936,-816.6168 416.7261,-830.7479 414.448,-844.4761"/>
<polygon fill="#000000" stroke="#000000" points="414.4291,-844.5853 417.344,-851.181 412.3767,-856.4085 409.4619,-849.8128 414.4291,-844.5853"/>
<text text-anchor="middle" x="464.1375" y="-601.7" font-family="Times,serif" font-size="14.00" fill="#00ff00">_mecTest</text>
</g>
<!-- sources.mechanicaltests.LoadControlTest&#45;&gt;sources.mechanicaltests.MechanicalTest -->
<g id="edge2" class="edge">
<title>sources.mechanicaltests.LoadControlTest-&gt;sources.mechanicaltests.MechanicalTest</title>
<path fill="none" stroke="#000000" d="M348.079,-371.5129C344.5689,-377.5814 341.1327,-383.6801 337.9264,-389.6 332.1329,-400.2967 326.3081,-411.3668 320.5347,-422.5861"/>
<polygon fill="none" stroke="#000000" points="317.356,-421.1147 315.917,-431.6114 323.5878,-424.3031 317.356,-421.1147"/>
</g>
<!-- sources.mechanicaltests.MechanicalTest&#45;&gt;sources.biaxmainwindow.BiaxMainWindow -->
<g id="edge8" class="edge">
<title>sources.mechanicaltests.MechanicalTest-&gt;sources.biaxmainwindow.BiaxMainWindow</title>
<path fill="none" stroke="#000000" d="M265.6033,-802.9059C270.7166,-815.164 276.6413,-826.9835 283.5042,-838 293.4508,-853.9664 307.3151,-868.2469 321.9447,-880.4575"/>
<polygon fill="#000000" stroke="#000000" points="322.2506,-880.7012 329.4358,-881.3121 331.6355,-888.1796 324.4503,-887.5687 322.2506,-880.7012"/>
<text text-anchor="middle" x="311.1375" y="-825.4" font-family="Times,serif" font-size="14.00" fill="#00ff00">_mecTest</text>
</g>
<!-- sources.mplwidget.MplWidget -->
<g id="node6" class="node">
<title>sources.mplwidget.MplWidget</title>
<polygon fill="none" stroke="#000000" points="670.6536,-59.3 670.6536,-133.7 751.1992,-133.7 751.1992,-59.3 670.6536,-59.3"/>
<text text-anchor="start" x="678.6536" y="-117.1" font-family="Times,serif" font-size="14.00" fill="#000000">MplWidget</text>
<polyline fill="none" stroke="#000000" points="670.6536,-108.9 751.1992,-108.9 "/>
<text text-anchor="start" x="691.8822" y="-92.3" font-family="Times,serif" font-size="14.00" fill="#000000">canvas</text>
<polyline fill="none" stroke="#000000" points="670.6536,-84.1 751.1992,-84.1 "/>
<text text-anchor="start" x="709.1764" y="-67.5" font-family="Times,serif" font-size="14.00" fill="#000000"> </text>
</g>
<!-- sources.pid.PID -->
<g id="node7" class="node">
<title>sources.pid.PID</title>
<polygon fill="none" stroke="#000000" points="290.6823,-.5 290.6823,-192.5 483.1705,-192.5 483.1705,-.5 290.6823,-.5"/>
<text text-anchor="start" x="375.6515" y="-175.9" font-family="Times,serif" font-size="14.00" fill="#000000">PID</text>
<polyline fill="none" stroke="#000000" points="290.6823,-167.7 483.1705,-167.7 "/>
<text text-anchor="start" x="344.5547" y="-151.1" font-family="Times,serif" font-size="14.00" fill="#000000">Kd</text>
<text text-anchor="start" x="344.5547" y="-134.3" font-family="Times,serif" font-size="14.00" fill="#000000">Ki</text>
<text text-anchor="start" x="344.5547" y="-117.5" font-family="Times,serif" font-size="14.00" fill="#000000">Kp</text>
<text text-anchor="start" x="344.5547" y="-100.7" font-family="Times,serif" font-size="14.00" fill="#000000">integral : int</text>
<text text-anchor="start" x="344.5547" y="-83.9" font-family="Times,serif" font-size="14.00" fill="#000000">prev_error : int</text>
<text text-anchor="start" x="344.5547" y="-67.1" font-family="Times,serif" font-size="14.00" fill="#000000">setpoint : int</text>
<polyline fill="none" stroke="#000000" points="290.6823,-58.9 483.1705,-58.9 "/>
<text text-anchor="start" x="298.6823" y="-42.3" font-family="Times,serif" font-size="14.00" fill="#000000">reset()</text>
<text text-anchor="start" x="298.6823" y="-25.5" font-family="Times,serif" font-size="14.00" fill="#000000">setPID(P, I, D)</text>
<text text-anchor="start" x="298.6823" y="-8.7" font-family="Times,serif" font-size="14.00" fill="#000000">updateOutput(measured_value)</text>
</g>
<!-- sources.pid.PID&#45;&gt;sources.mechanicaltests.LoadControlTest -->
<g id="edge9" class="edge">
<title>sources.pid.PID-&gt;sources.mechanicaltests.LoadControlTest</title>
<path fill="none" stroke="#000000" d="M355.9797,-192.7349C354.8668,-204.5132 354.9986,-216.4084 357.0358,-227.8 357.4242,-229.9717 357.8669,-232.1615 358.3563,-234.36"/>
<polygon fill="#000000" stroke="#000000" points="358.3981,-234.5235 363.7624,-239.3427 361.3771,-246.1479 356.0128,-241.3287 358.3981,-234.5235"/>
<text text-anchor="middle" x="377.3717" y="-215.2" font-family="Times,serif" font-size="14.00" fill="#00ff00">_pid_1</text>
</g>
<!-- sources.pid.PID&#45;&gt;sources.mechanicaltests.LoadControlTest -->
<g id="edge10" class="edge">
<title>sources.pid.PID-&gt;sources.mechanicaltests.LoadControlTest</title>
<path fill="none" stroke="#000000" d="M396.2593,-192.572C396.6011,-204.4335 396.5589,-216.3932 395.9264,-227.8 395.8134,-229.8371 395.6846,-231.9018 395.542,-233.9845"/>
<polygon fill="#000000" stroke="#000000" points="395.5346,-234.079 399.05,-240.3752 394.5902,-246.0418 391.0748,-239.7456 395.5346,-234.079"/>
<text text-anchor="middle" x="416.3717" y="-215.2" font-family="Times,serif" font-size="14.00" fill="#00ff00">_pid_2</text>
</g>
<!-- sources.camerawindow.VideoThread -->
<g id="node8" class="node">
<title>sources.camerawindow.VideoThread</title>
<polygon fill="none" stroke="#000000" points="514.8303,-518.3 514.8303,-693.5 677.0225,-693.5 677.0225,-518.3 514.8303,-518.3"/>
<text text-anchor="start" x="558.9993" y="-676.9" font-family="Times,serif" font-size="14.00" fill="#000000">VideoThread</text>
<polyline fill="none" stroke="#000000" points="514.8303,-668.7 677.0225,-668.7 "/>
<text text-anchor="start" x="530.6185" y="-652.1" font-family="Times,serif" font-size="14.00" fill="#000000">res_x_full : int</text>
<text text-anchor="start" x="530.6185" y="-635.3" font-family="Times,serif" font-size="14.00" fill="#000000">res_y_full : int</text>
<text text-anchor="start" x="530.6185" y="-618.5" font-family="Times,serif" font-size="14.00" fill="#000000">signal_change_pixmap</text>
<text text-anchor="start" x="530.6185" y="-601.7" font-family="Times,serif" font-size="14.00" fill="#000000">signal_marks_recorded</text>
<polyline fill="none" stroke="#000000" points="514.8303,-593.5 677.0225,-593.5 "/>
<text text-anchor="start" x="522.8303" y="-576.9" font-family="Times,serif" font-size="14.00" fill="#000000">run()</text>
<text text-anchor="start" x="522.8303" y="-560.1" font-family="Times,serif" font-size="14.00" fill="#000000">startStopTracking(flag)</text>
<text text-anchor="start" x="522.8303" y="-543.3" font-family="Times,serif" font-size="14.00" fill="#000000">stop()</text>
<text text-anchor="start" x="522.8303" y="-526.5" font-family="Times,serif" font-size="14.00" fill="#000000">update_roi(x1, y1, x2, y2)</text>
</g>
<!-- sources.camerawindow.VideoThread&#45;&gt;sources.biaxmainwindow.BiaxMainWindow -->
<g id="edge3" class="edge">
<title>sources.camerawindow.VideoThread-&gt;sources.biaxmainwindow.BiaxMainWindow</title>
<path fill="none" stroke="#000000" d="M558.6707,-693.7979C542.4128,-728.8586 522.0175,-768.9462 499.9264,-803.2 490.4941,-817.8255 479.5701,-832.6647 468.4349,-846.7517"/>
<polygon fill="#000000" stroke="#000000" points="468.2224,-847.0162 467.5837,-854.199 460.7078,-856.3721 461.3465,-849.1893 468.2224,-847.0162"/>
<text text-anchor="middle" x="527.9692" y="-825.4" font-family="Times,serif" font-size="14.00" fill="#00ff00">_video_thread</text>
</g>
<!-- sources.camerawindow.VideoWindow -->
<g id="node9" class="node">
<title>sources.camerawindow.VideoWindow</title>
<polygon fill="none" stroke="#000000" points="694.737,-493.1 694.737,-718.7 863.1158,-718.7 863.1158,-493.1 694.737,-493.1"/>
<text text-anchor="start" x="737.7146" y="-702.1" font-family="Times,serif" font-size="14.00" fill="#000000">VideoWindow</text>
<polyline fill="none" stroke="#000000" points="694.737,-693.9 863.1158,-693.9 "/>
<text text-anchor="start" x="728.7707" y="-677.3" font-family="Times,serif" font-size="14.00" fill="#000000">res_x : int</text>
<text text-anchor="start" x="728.7707" y="-660.5" font-family="Times,serif" font-size="14.00" fill="#000000">res_y : int</text>
<text text-anchor="start" x="728.7707" y="-643.7" font-family="Times,serif" font-size="14.00" fill="#000000">signal_update_roi</text>
<text text-anchor="start" x="728.7707" y="-626.9" font-family="Times,serif" font-size="14.00" fill="#000000">thread</text>
<polyline fill="none" stroke="#000000" points="694.737,-618.7 863.1158,-618.7 "/>
<text text-anchor="start" x="702.737" y="-602.1" font-family="Times,serif" font-size="14.00" fill="#000000">closeEvent(event)</text>
<text text-anchor="start" x="702.737" y="-585.3" font-family="Times,serif" font-size="14.00" fill="#000000">mouseMoveEvent(event)</text>
<text text-anchor="start" x="702.737" y="-568.5" font-family="Times,serif" font-size="14.00" fill="#000000">mousePressEvent(event)</text>
<text text-anchor="start" x="702.737" y="-551.7" font-family="Times,serif" font-size="14.00" fill="#000000">mouseReleaseEvent(event)</text>
<text text-anchor="start" x="702.737" y="-534.9" font-family="Times,serif" font-size="14.00" fill="#000000">startStopTracking(flag)</text>
<text text-anchor="start" x="702.737" y="-518.1" font-family="Times,serif" font-size="14.00" fill="#000000">stop_webcam()</text>
<text text-anchor="start" x="702.737" y="-501.3" font-family="Times,serif" font-size="14.00" fill="#000000">update_image(cv_img)</text>
</g>
<!-- sources.camerawindow.VideoWindow&#45;&gt;sources.biaxmainwindow.BiaxMainWindow -->
<g id="edge4" class="edge">
<title>sources.camerawindow.VideoWindow-&gt;sources.biaxmainwindow.BiaxMainWindow</title>
<path fill="none" stroke="#000000" d="M742.5462,-718.865C728.5872,-749.1557 710.0334,-779.9194 685.9264,-803.2 626.9787,-860.1269 537.8231,-892.9586 474.1368,-910.3816"/>
<polygon fill="#000000" stroke="#000000" points="473.7542,-910.4831 468.9807,-915.8881 462.1555,-913.5607 466.929,-908.1556 473.7542,-910.4831"/>
<text text-anchor="middle" x="705.0309" y="-825.4" font-family="Times,serif" font-size="14.00" fill="#00ff00">_video_window</text>
</g>
<!-- sources.markersdetection.markersDetection -->
<g id="node10" class="node">
<title>sources.markersdetection.markersDetection</title>
<polygon fill="none" stroke="#000000" points="769.1283,-59.3 769.1283,-133.7 908.7245,-133.7 908.7245,-59.3 769.1283,-59.3"/>
<text text-anchor="start" x="789.1725" y="-117.1" font-family="Times,serif" font-size="14.00" fill="#000000">markersDetection</text>
<polyline fill="none" stroke="#000000" points="769.1283,-108.9 908.7245,-108.9 "/>
<polyline fill="none" stroke="#000000" points="769.1283,-84.1 908.7245,-84.1 "/>
<text text-anchor="start" x="777.1283" y="-67.5" font-family="Times,serif" font-size="14.00" fill="#000000">detectMarkers(image)</text>
</g>
</g>
</svg>