<?xml version="1.0" encoding="UTF-8" standalone="no"?>
<!DOCTYPE svg PUBLIC "-//W3C//DTD SVG 1.1//EN" "http://www.w3.org/Graphics/SVG/1.1/DTD/svg11.dtd">
<!-- Generated by graphviz version 2.40.1 (20161225.0304)
 -->
<!-- Title: classes Pages: 1 -->
<svg width="970pt" height="1076pt" viewBox="0.00 0.00 970.12 1076.20" xmlns="http://www.w3.org/2000/svg" xmlns:xlink="http://www.w3.org/1999/xlink">
<g id="graph0" class="graph" transform="scale(1 1) rotate(0) translate(4 1072.2)">
<title>classes</title>
<polygon fill="#ffffff" stroke="transparent" points="-4,4 -4,-1072.2 966.1158,-1072.2 966.1158,4 -4,4"/>
<!-- sources.biaxmainwindow.BiaxMainWindow -->
<g id="node1" class="node">
<title>sources.biaxmainwindow.BiaxMainWindow</title>
<polygon fill="none" stroke="#000000" points="398.7721,-767.9 398.7721,-909.5 529.0807,-909.5 529.0807,-767.9 398.7721,-767.9"/>
<text text-anchor="start" x="411.8247" y="-892.9" font-family="Times,serif" font-size="14.00" fill="#000000">BiaxMainWindow</text>
<polyline fill="none" stroke="#000000" points="398.7721,-884.7 529.0807,-884.7 "/>
<text text-anchor="start" x="406.7721" y="-868.1" font-family="Times,serif" font-size="14.00" fill="#000000">cycl_num : int</text>
<text text-anchor="start" x="406.7721" y="-851.3" font-family="Times,serif" font-size="14.00" fill="#000000">end_force1 : float</text>
<text text-anchor="start" x="406.7721" y="-834.5" font-family="Times,serif" font-size="14.00" fill="#000000">end_force2 : float</text>
<text text-anchor="start" x="406.7721" y="-817.7" font-family="Times,serif" font-size="14.00" fill="#000000">fl_label_color : bool</text>
<text text-anchor="start" x="406.7721" y="-800.9" font-family="Times,serif" font-size="14.00" fill="#000000">test_duration : float</text>
<polyline fill="none" stroke="#000000" points="398.7721,-792.7 529.0807,-792.7 "/>
<text text-anchor="start" x="413.3948" y="-776.1" font-family="Times,serif" font-size="14.00" fill="#000000">closeEvent(event)</text>
</g>
<!-- sources.mechanicaltests.DisplacementControlTest -->
<g id="node2" class="node">
<title>sources.mechanicaltests.DisplacementControlTest</title>
<polygon fill="none" stroke="#000000" points="0,-355.5 0,-446.7 159.8528,-446.7 159.8528,-355.5 0,-355.5"/>
<text text-anchor="start" x="8" y="-430.1" font-family="Times,serif" font-size="14.00" fill="#000000">DisplacementControlTest</text>
<polyline fill="none" stroke="#000000" points="0,-421.9 159.8528,-421.9 "/>
<polyline fill="none" stroke="#000000" points="0,-397.1 159.8528,-397.1 "/>
<text text-anchor="start" x="9.5638" y="-380.5" font-family="Times,serif" font-size="14.00" fill="#000000">run()</text>
<text text-anchor="start" x="9.5638" y="-363.7" font-family="Times,serif" font-size="14.00" fill="#000000">update_speed(val1, val2)</text>
</g>
<!-- sources.mechanicaltests.DisplacementControlTest&#45;&gt;sources.biaxmainwindow.BiaxMainWindow -->
<g id="edge5" class="edge">
<title>sources.mechanicaltests.DisplacementControlTest-&gt;sources.biaxmainwindow.BiaxMainWindow</title>
<path fill="none" stroke="#000000" d="M96.7916,-446.8162C111.3687,-480.8953 135.4035,-526.5238 168.9264,-556.4 213.3388,-595.9811 245.1697,-572.4177 291.9264,-609.2 343.3332,-649.6403 387.2712,-709.0063 417.8699,-757.2272"/>
<polygon fill="#000000" stroke="#000000" points="418.0252,-757.4756 424.5979,-760.4419 424.3877,-767.65 417.815,-764.6836 418.0252,-757.4756"/>
<text text-anchor="middle" x="286.1375" y="-578.6" font-family="Times,serif" font-size="14.00" fill="#00ff00">_mecTest</text>
</g>
<!-- sources.mechanicaltests.MechanicalTest -->
<g id="node5" class="node">
<title>sources.mechanicaltests.MechanicalTest</title>
<polygon fill="none" stroke="#000000" points="119.0526,-609.7 119.0526,-1067.7 282.8002,-1067.7 282.8002,-609.7 119.0526,-609.7"/>
<text text-anchor="start" x="156.2258" y="-1051.1" font-family="Times,serif" font-size="14.00" fill="#000000">MechanicalTest</text>
<polyline fill="none" stroke="#000000" points="119.0526,-1042.9 282.8002,-1042.9 "/>
<text text-anchor="start" x="127.0526" y="-1026.3" font-family="Times,serif" font-size="14.00" fill="#000000">change_pixmap_signal</text>
<text text-anchor="start" x="127.0526" y="-1009.5" font-family="Times,serif" font-size="14.00" fill="#000000">group1 : list</text>
<text text-anchor="start" x="127.0526" y="-992.7" font-family="Times,serif" font-size="14.00" fill="#000000">group2 : list</text>
<text text-anchor="start" x="127.0526" y="-975.9" font-family="Times,serif" font-size="14.00" fill="#000000">group3 : list</text>
<text text-anchor="start" x="127.0526" y="-959.1" font-family="Times,serif" font-size="14.00" fill="#000000">group4 : list</text>
<text text-anchor="start" x="127.0526" y="-942.3" font-family="Times,serif" font-size="14.00" fill="#000000">img_track : ndarray</text>
<text text-anchor="start" x="127.0526" y="-925.5" font-family="Times,serif" font-size="14.00" fill="#000000">marks_groups : list</text>
<text text-anchor="start" x="127.0526" y="-908.7" font-family="Times,serif" font-size="14.00" fill="#000000">marks_recorded : bool</text>
<text text-anchor="start" x="127.0526" y="-891.9" font-family="Times,serif" font-size="14.00" fill="#000000">sample_time : float</text>
<text text-anchor="start" x="127.0526" y="-875.1" font-family="Times,serif" font-size="14.00" fill="#000000">start_stop_tracking_signal</text>
<text text-anchor="start" x="127.0526" y="-858.3" font-family="Times,serif" font-size="14.00" fill="#000000">thread</text>
<text text-anchor="start" x="127.0526" y="-841.5" font-family="Times,serif" font-size="14.00" fill="#000000">update_force_label_signal</text>
<text text-anchor="start" x="127.0526" y="-824.7" font-family="Times,serif" font-size="14.00" fill="#000000">update_matplotlib_signal</text>
<text text-anchor="start" x="127.0526" y="-807.9" font-family="Times,serif" font-size="14.00" fill="#000000">use_camera : bool</text>
<polyline fill="none" stroke="#000000" points="119.0526,-799.7 282.8002,-799.7 "/>
<text text-anchor="start" x="128.6192" y="-784.1" font-family="Times,serif" font-size="14.00" fill="#000000">changeFolder(folder)</text>
<text text-anchor="start" x="128.6192" y="-770.1" font-family="Times,serif" font-size="14.00" fill="#000000">initMotZeroPos()</text>
<text text-anchor="start" x="128.6192" y="-756.1" font-family="Times,serif" font-size="14.00" fill="#000000">marksRecorded(lst)</text>
<text text-anchor="start" x="128.6192" y="-742.1" font-family="Times,serif" font-size="14.00" fill="#000000">moveSamplePosition()</text>
<text text-anchor="start" x="128.6192" y="-728.1" font-family="Times,serif" font-size="14.00" fill="#000000">moveVelocityAx1(speed)</text>
<text text-anchor="start" x="128.6192" y="-714.1" font-family="Times,serif" font-size="14.00" fill="#000000">moveVelocityAx2(speed)</text>
<text text-anchor="start" x="128.6192" y="-700.1" font-family="Times,serif" font-size="14.00" fill="#000000">readForceLive()</text>
<text text-anchor="start" x="128.6192" y="-686.1" font-family="Times,serif" font-style="italic" font-size="14.00" fill="#000000">run</text>
<text text-anchor="start" x="147.2798" y="-686.1" font-family="Times,serif" font-size="14.00" fill="#000000">()</text>
<text text-anchor="start" x="128.6192" y="-672.1" font-family="Times,serif" font-size="14.00" fill="#000000">setThread(thread)</text>
<text text-anchor="start" x="128.6192" y="-658.1" font-family="Times,serif" font-size="14.00" fill="#000000">stop()</text>
<text text-anchor="start" x="128.6192" y="-644.1" font-family="Times,serif" font-size="14.00" fill="#000000">stop_measurement()</text>
<text text-anchor="start" x="128.6192" y="-630.1" font-family="Times,serif" font-size="14.00" fill="#000000">zeroForce()</text>
<text text-anchor="start" x="128.6192" y="-616.1" font-family="Times,serif" font-size="14.00" fill="#000000">zeroPosition()</text>
</g>
<!-- sources.mechanicaltests.DisplacementControlTest&#45;&gt;sources.mechanicaltests.MechanicalTest -->
<g id="edge1" class="edge">
<title>sources.mechanicaltests.DisplacementControlTest-&gt;sources.mechanicaltests.MechanicalTest</title>
<path fill="none" stroke="#000000" d="M92.6468,-447.1038C103.0788,-484.8314 118.7144,-541.3779 134.8825,-599.8503"/>
<polygon fill="none" stroke="#000000" points="131.5483,-600.9253 137.5869,-609.6308 138.2952,-599.0597 131.5483,-600.9253"/>
</g>
<!-- sources.loadcalculator.LoadCalculatorWindow -->
<g id="node3" class="node">
<title>sources.loadcalculator.LoadCalculatorWindow</title>
<polygon fill="none" stroke="#000000" points="501.2805,-59.3 501.2805,-133.7 652.5723,-133.7 652.5723,-59.3 501.2805,-59.3"/>
<text text-anchor="start" x="509.2805" y="-117.1" font-family="Times,serif" font-size="14.00" fill="#000000">LoadCalculatorWindow</text>
<polyline fill="none" stroke="#000000" points="501.2805,-108.9 652.5723,-108.9 "/>
<text text-anchor="start" x="510.0589" y="-92.3" font-family="Times,serif" font-size="14.00" fill="#000000">signal_loads_calculated</text>
<polyline fill="none" stroke="#000000" points="501.2805,-84.1 652.5723,-84.1 "/>
<text text-anchor="start" x="526.3948" y="-68.5" font-family="Times,serif" font-style="italic" font-size="14.00" fill="#000000">closeEvent</text>
<text text-anchor="start" x="587.817" y="-68.5" font-family="Times,serif" font-size="14.00" fill="#000000">(event)</text>
</g>
<!-- sources.mechanicaltests.LoadControlTest -->
<g id="node4" class="node">
<title>sources.mechanicaltests.LoadControlTest</title>
<polygon fill="none" stroke="#000000" points="177.955,-338.7 177.955,-463.5 595.8978,-463.5 595.8978,-338.7 177.955,-338.7"/>
<text text-anchor="start" x="339.1024" y="-446.9" font-family="Times,serif" font-size="14.00" fill="#000000">LoadControlTest</text>
<polyline fill="none" stroke="#000000" points="177.955,-438.7 595.8978,-438.7 "/>
<polyline fill="none" stroke="#000000" points="177.955,-413.9 595.8978,-413.9 "/>
<text text-anchor="start" x="185.955" y="-397.3" font-family="Times,serif" font-size="14.00" fill="#000000">increase_desired_force(start_force, end_force, duration, current_time)</text>
<text text-anchor="start" x="185.955" y="-380.5" font-family="Times,serif" font-size="14.00" fill="#000000">run()</text>
<text text-anchor="start" x="185.955" y="-363.7" font-family="Times,serif" font-size="14.00" fill="#000000">updatePID(P1, I1, D1, P2, I2, D2)</text>
<text text-anchor="start" x="185.955" y="-346.9" font-family="Times,serif" font-size="14.00" fill="#000000">update_parameters(end_force1, end_force2, test_duration, num_cycles)</text>
</g>
<!-- sources.mechanicaltests.LoadControlTest&#45;&gt;sources.biaxmainwindow.BiaxMainWindow -->
<g id="edge6" class="edge">
<title>sources.mechanicaltests.LoadControlTest-&gt;sources.biaxmainwindow.BiaxMainWindow</title>
<path fill="none" stroke="#000000" d="M410.5001,-463.5913C421.8265,-496.1657 434.5188,-536.9307 441.9264,-574.4 453.7692,-634.3034 459.2459,-703.071 461.7742,-755.4429"/>
<polygon fill="#000000" stroke="#000000" points="461.7866,-755.7217 466.0528,-761.5354 462.3271,-767.7095 458.0609,-761.8957 461.7866,-755.7217"/>
<text text-anchor="middle" x="472.1375" y="-578.6" font-family="Times,serif" font-size="14.00" fill="#00ff00">_mecTest</text>
</g>
<!-- sources.mechanicaltests.LoadControlTest&#45;&gt;sources.biaxmainwindow.BiaxMainWindow -->
<g id="edge7" class="edge">
<title>sources.mechanicaltests.LoadControlTest-&gt;sources.biaxmainwindow.BiaxMainWindow</title>
<path fill="none" stroke="#000000" d="M385.393,-463.6629C384.6608,-496.6094 383.8666,-537.6887 383.5042,-574.4 383.4305,-581.8663 382.3361,-583.8253 383.5042,-591.2 392.4663,-647.7811 412.2795,-709.0295 429.9963,-756.4415"/>
<polygon fill="#000000" stroke="#000000" points="430.0772,-756.655 435.9435,-760.8486 434.3287,-767.8766 428.4624,-763.683 430.0772,-756.655"/>
<text text-anchor="middle" x="411.1375" y="-578.6" font-family="Times,serif" font-size="14.00" fill="#00ff00">_mecTest</text>
</g>
<!-- sources.mechanicaltests.LoadControlTest&#45;&gt;sources.mechanicaltests.MechanicalTest -->
<g id="edge2" class="edge">
<title>sources.mechanicaltests.LoadControlTest-&gt;sources.mechanicaltests.MechanicalTest</title>
<path fill="none" stroke="#000000" d="M360.2771,-463.7974C340.8894,-509.4107 313.4742,-573.91 286.8389,-636.5747"/>
<polygon fill="none" stroke="#000000" points="283.6065,-635.2322 282.9158,-645.8045 290.0487,-637.9705 283.6065,-635.2322"/>
</g>
<!-- sources.mplwidget.MplWidget -->
<g id="node6" class="node">
<title>sources.mplwidget.MplWidget</title>
<polygon fill="none" stroke="#000000" points="670.6536,-59.3 670.6536,-133.7 751.1992,-133.7 751.1992,-59.3 670.6536,-59.3"/>
<text text-anchor="start" x="678.6536" y="-117.1" font-family="Times,serif" font-size="14.00" fill="#000000">MplWidget</text>
<polyline fill="none" stroke="#000000" points="670.6536,-108.9 751.1992,-108.9 "/>
<text text-anchor="start" x="691.8822" y="-92.3" font-family="Times,serif" font-size="14.00" fill="#000000">canvas</text>
<polyline fill="none" stroke="#000000" points="670.6536,-84.1 751.1992,-84.1 "/>
<text text-anchor="start" x="709.1764" y="-67.5" font-family="Times,serif" font-size="14.00" fill="#000000"> </text>
</g>
<!-- sources.mechanicaltests.PID -->
<g id="node7" class="node">
<title>sources.mechanicaltests.PID</title>
<polygon fill="none" stroke="#000000" points="290.6823,-.5 290.6823,-192.5 483.1705,-192.5 483.1705,-.5 290.6823,-.5"/>
<text text-anchor="start" x="375.6515" y="-175.9" font-family="Times,serif" font-size="14.00" fill="#000000">PID</text>
<polyline fill="none" stroke="#000000" points="290.6823,-167.7 483.1705,-167.7 "/>
<text text-anchor="start" x="344.5547" y="-151.1" font-family="Times,serif" font-size="14.00" fill="#000000">Kd</text>
<text text-anchor="start" x="344.5547" y="-134.3" font-family="Times,serif" font-size="14.00" fill="#000000">Ki</text>
<text text-anchor="start" x="344.5547" y="-117.5" font-family="Times,serif" font-size="14.00" fill="#000000">Kp</text>
<text text-anchor="start" x="344.5547" y="-100.7" font-family="Times,serif" font-size="14.00" fill="#000000">integral : int</text>
<text text-anchor="start" x="344.5547" y="-83.9" font-family="Times,serif" font-size="14.00" fill="#000000">prev_error : int</text>
<text text-anchor="start" x="344.5547" y="-67.1" font-family="Times,serif" font-size="14.00" fill="#000000">setpoint : int</text>
<polyline fill="none" stroke="#000000" points="290.6823,-58.9 483.1705,-58.9 "/>
<text text-anchor="start" x="298.6823" y="-42.3" font-family="Times,serif" font-size="14.00" fill="#000000">reset()</text>
<text text-anchor="start" x="298.6823" y="-25.5" font-family="Times,serif" font-size="14.00" fill="#000000">setPID(P, I, D)</text>
<text text-anchor="start" x="298.6823" y="-8.7" font-family="Times,serif" font-size="14.00" fill="#000000">updateOutput(measured_value)</text>
</g>
<!-- sources.mechanicaltests.PID&#45;&gt;sources.mechanicaltests.LoadControlTest -->
<g id="edge8" class="edge">
<title>sources.mechanicaltests.PID-&gt;sources.mechanicaltests.LoadControlTest</title>
<path fill="none" stroke="#000000" d="M359.9474,-192.6719C358.7983,-198.8423 357.8075,-204.9887 357.0358,-211 352.146,-249.0901 357.6736,-291.3008 365.2495,-326.2524"/>
<polygon fill="#000000" stroke="#000000" points="365.3278,-326.5952 370.5638,-331.5534 368.0009,-338.2937 362.7648,-333.3355 365.3278,-326.5952"/>
<text text-anchor="middle" x="377.3717" y="-215.2" font-family="Times,serif" font-size="14.00" fill="#00ff00">_pid_1</text>
</g>
<!-- sources.mechanicaltests.PID&#45;&gt;sources.mechanicaltests.LoadControlTest -->
<g id="edge9" class="edge">
<title>sources.mechanicaltests.PID-&gt;sources.mechanicaltests.LoadControlTest</title>
<path fill="none" stroke="#000000" d="M395.0362,-192.6758C395.3887,-198.8738 395.6918,-205.0227 395.9264,-211 397.4214,-249.0975 395.7399,-291.4748 393.4419,-326.5326"/>
<polygon fill="#000000" stroke="#000000" points="393.4348,-326.6373 397.0117,-332.8987 392.6076,-338.6087 389.0307,-332.3473 393.4348,-326.6373"/>
<text text-anchor="middle" x="416.3717" y="-215.2" font-family="Times,serif" font-size="14.00" fill="#00ff00">_pid_2</text>
</g>
<!-- sources.camerawindow.VideoThread -->
<g id="node8" class="node">
<title>sources.camerawindow.VideoThread</title>
<polygon fill="none" stroke="#000000" points="613.8303,-263.1 613.8303,-539.1 776.0225,-539.1 776.0225,-263.1 613.8303,-263.1"/>
<text text-anchor="start" x="657.9993" y="-522.5" font-family="Times,serif" font-size="14.00" fill="#000000">VideoThread</text>
<polyline fill="none" stroke="#000000" points="613.8303,-514.3 776.0225,-514.3 "/>
<text text-anchor="start" x="629.6185" y="-497.7" font-family="Times,serif" font-size="14.00" fill="#000000">change_pixmap_signal</text>
<text text-anchor="start" x="629.6185" y="-480.9" font-family="Times,serif" font-size="14.00" fill="#000000">group1 : list</text>
<text text-anchor="start" x="629.6185" y="-464.1" font-family="Times,serif" font-size="14.00" fill="#000000">group2 : list</text>
<text text-anchor="start" x="629.6185" y="-447.3" font-family="Times,serif" font-size="14.00" fill="#000000">group3 : list</text>
<text text-anchor="start" x="629.6185" y="-430.5" font-family="Times,serif" font-size="14.00" fill="#000000">group4 : list</text>
<text text-anchor="start" x="629.6185" y="-413.7" font-family="Times,serif" font-size="14.00" fill="#000000">group5 : list</text>
<text text-anchor="start" x="629.6185" y="-396.9" font-family="Times,serif" font-size="14.00" fill="#000000">marks_groups : list</text>
<text text-anchor="start" x="629.6185" y="-380.1" font-family="Times,serif" font-size="14.00" fill="#000000">signal_marks_recorded</text>
<polyline fill="none" stroke="#000000" points="613.8303,-371.9 776.0225,-371.9 "/>
<text text-anchor="start" x="621.8303" y="-355.3" font-family="Times,serif" font-size="14.00" fill="#000000">if_within_roi(p)</text>
<text text-anchor="start" x="621.8303" y="-338.5" font-family="Times,serif" font-size="14.00" fill="#000000">run()</text>
<text text-anchor="start" x="621.8303" y="-321.7" font-family="Times,serif" font-size="14.00" fill="#000000">startStopTracking(flag)</text>
<text text-anchor="start" x="621.8303" y="-304.9" font-family="Times,serif" font-size="14.00" fill="#000000">stop()</text>
<text text-anchor="start" x="621.8303" y="-288.1" font-family="Times,serif" font-size="14.00" fill="#000000">update_roi(x1, y1, x2, y2)</text>
<text text-anchor="start" x="621.8303" y="-271.3" font-family="Times,serif" font-size="14.00" fill="#000000">writeDataToFile()</text>
</g>
<!-- sources.camerawindow.VideoThread&#45;&gt;sources.biaxmainwindow.BiaxMainWindow -->
<g id="edge3" class="edge">
<title>sources.camerawindow.VideoThread-&gt;sources.biaxmainwindow.BiaxMainWindow</title>
<path fill="none" stroke="#000000" d="M621.9951,-539.259C584.2035,-610.8504 539.3425,-695.8339 507.084,-756.9434"/>
<polygon fill="#000000" stroke="#000000" points="507.0161,-757.0722 507.7525,-764.2456 501.4141,-767.6844 500.6777,-760.511 507.0161,-757.0722"/>
<text text-anchor="middle" x="640.9692" y="-578.6" font-family="Times,serif" font-size="14.00" fill="#00ff00">_video_thread</text>
</g>
<!-- sources.camerawindow.VideoWindow -->
<g id="node9" class="node">
<title>sources.camerawindow.VideoWindow</title>
<polygon fill="none" stroke="#000000" points="793.737,-246.3 793.737,-555.9 962.1158,-555.9 962.1158,-246.3 793.737,-246.3"/>
<text text-anchor="start" x="836.7146" y="-539.3" font-family="Times,serif" font-size="14.00" fill="#000000">VideoWindow</text>
<polyline fill="none" stroke="#000000" points="793.737,-531.1 962.1158,-531.1 "/>
<text text-anchor="start" x="812.9958" y="-514.5" font-family="Times,serif" font-size="14.00" fill="#000000">button_stop</text>
<text text-anchor="start" x="812.9958" y="-497.7" font-family="Times,serif" font-size="14.00" fill="#000000">display_height : int</text>
<text text-anchor="start" x="812.9958" y="-480.9" font-family="Times,serif" font-size="14.00" fill="#000000">disply_width : int</text>
<text text-anchor="start" x="812.9958" y="-464.1" font-family="Times,serif" font-size="14.00" fill="#000000">end_point : NoneType</text>
<text text-anchor="start" x="812.9958" y="-447.3" font-family="Times,serif" font-size="14.00" fill="#000000">image_label</text>
<text text-anchor="start" x="812.9958" y="-430.5" font-family="Times,serif" font-size="14.00" fill="#000000">layout</text>
<text text-anchor="start" x="812.9958" y="-413.7" font-family="Times,serif" font-size="14.00" fill="#000000">start_point : NoneType</text>
<text text-anchor="start" x="812.9958" y="-396.9" font-family="Times,serif" font-size="14.00" fill="#000000">thread</text>
<text text-anchor="start" x="812.9958" y="-380.1" font-family="Times,serif" font-size="14.00" fill="#000000">update_roi_signal</text>
<polyline fill="none" stroke="#000000" points="793.737,-371.9 962.1158,-371.9 "/>
<text text-anchor="start" x="801.737" y="-355.3" font-family="Times,serif" font-size="14.00" fill="#000000">closeEvent(event)</text>
<text text-anchor="start" x="801.737" y="-338.5" font-family="Times,serif" font-size="14.00" fill="#000000">mouseMoveEvent(event)</text>
<text text-anchor="start" x="801.737" y="-321.7" font-family="Times,serif" font-size="14.00" fill="#000000">mousePressEvent(event)</text>
<text text-anchor="start" x="801.737" y="-304.9" font-family="Times,serif" font-size="14.00" fill="#000000">mouseReleaseEvent(event)</text>
<text text-anchor="start" x="801.737" y="-288.1" font-family="Times,serif" font-size="14.00" fill="#000000">startStopTracking(flag)</text>
<text text-anchor="start" x="801.737" y="-271.3" font-family="Times,serif" font-size="14.00" fill="#000000">stop_webcam()</text>
<text text-anchor="start" x="801.737" y="-254.5" font-family="Times,serif" font-size="14.00" fill="#000000">update_image(cv_img)</text>
</g>
<!-- sources.camerawindow.VideoWindow&#45;&gt;sources.biaxmainwindow.BiaxMainWindow -->
<g id="edge4" class="edge">
<title>sources.camerawindow.VideoWindow-&gt;sources.biaxmainwindow.BiaxMainWindow</title>
<path fill="none" stroke="#000000" d="M793.5739,-545.614C790.7272,-549.2958 787.8428,-552.8987 784.9264,-556.4 711.0207,-645.1276 608.3699,-730.286 539.2193,-783.4357"/>
<polygon fill="#000000" stroke="#000000" points="538.8015,-783.755 536.4633,-790.5765 529.2672,-791.0419 531.6054,-784.2203 538.8015,-783.755"/>
<text text-anchor="middle" x="807.0309" y="-578.6" font-family="Times,serif" font-size="14.00" fill="#00ff00">_video_window</text>
</g>
<!-- sources.camerawindow.markersDetection -->
<g id="node10" class="node">
<title>sources.camerawindow.markersDetection</title>
<polygon fill="none" stroke="#000000" points="769.1283,-59.3 769.1283,-133.7 908.7245,-133.7 908.7245,-59.3 769.1283,-59.3"/>
<text text-anchor="start" x="789.1725" y="-117.1" font-family="Times,serif" font-size="14.00" fill="#000000">markersDetection</text>
<polyline fill="none" stroke="#000000" points="769.1283,-108.9 908.7245,-108.9 "/>
<polyline fill="none" stroke="#000000" points="769.1283,-84.1 908.7245,-84.1 "/>
<text text-anchor="start" x="777.1283" y="-67.5" font-family="Times,serif" font-size="14.00" fill="#000000">detectMarkers(image)</text>
</g>
</g>
</svg>